<?xml version="1.0" encoding="UTF-8" standalone="no"?>
<svg
   xmlns:dc="http://purl.org/dc/elements/1.1/"
   xmlns:cc="http://creativecommons.org/ns#"
   xmlns:rdf="http://www.w3.org/1999/02/22-rdf-syntax-ns#"
   xmlns:svg="http://www.w3.org/2000/svg"
   xmlns="http://www.w3.org/2000/svg"
   xmlns:sodipodi="http://sodipodi.sourceforge.net/DTD/sodipodi-0.dtd"
   xmlns:inkscape="http://www.inkscape.org/namespaces/inkscape"
   viewBox="0 0 64 64"
   enable-background="new 0 0 64 64"
   id="svg2"
   version="1.1"
   inkscape:version="0.48.4 r9939"
   width="100%"
   height="100%"
   sodipodi:docname="te_toca.svg">
  <metadata
     id="metadata38">
    <rdf:RDF>
      <cc:Work
         rdf:about="">
        <dc:format>image/svg+xml</dc:format>
        <dc:type
           rdf:resource="http://purl.org/dc/dcmitype/StillImage" />
        <dc:title></dc:title>
      </cc:Work>
    </rdf:RDF>
  </metadata>
  <defs
     id="defs36" />
  <sodipodi:namedview
     pagecolor="#ffffff"
     bordercolor="#666666"
     borderopacity="1"
     objecttolerance="10"
     gridtolerance="10"
     guidetolerance="10"
     inkscape:pageopacity="0"
     inkscape:pageshadow="2"
     inkscape:window-width="1920"
     inkscape:window-height="1020"
     id="namedview34"
     showgrid="false"
     inkscape:zoom="1.3037281"
     inkscape:cx="357.79122"
     inkscape:cy="38.081737"
     inkscape:window-x="0"
     inkscape:window-y="0"
     inkscape:window-maximized="1"
     inkscape:current-layer="svg2" />
  <path
     d="M -24.749004,18.141413 C -28.35225,51.160892 -4.4774401,80.870787 28.550849,84.474033 61.561518,88.07728 91.289033,64.223027 94.898153,31.203547 L 98.38687,-0.73818725 C 101.99012,-33.75473 78.112369,-63.470499 45.087018,-67.073746 12.067539,-70.67699 -17.651166,-46.819801 -21.260285,-13.803258 l -3.488719,31.938797"
     id="path4"
     inkscape:connector-curvature="0"
     style="fill:#633d19"
     inkscape:export-filename="/home/alfred/Desktop/piano/data/te_toca.png"
     inkscape:export-xdpi="90"
     inkscape:export-ydpi="90" />
  <path
     d="m 70.941117,113.79042 -0.945595,-6.60448 c -2.140804,-14.929835 3.85286,-27.71299 13.385163,-28.567549 9.517622,-0.831066 18.988255,10.598301 21.123185,25.551629 l 1.37435,9.61746 H 70.941117 z"
     id="path6"
     inkscape:connector-curvature="0"
     style="fill:#fbb042"
     inkscape:export-filename="/home/alfred/Desktop/piano/data/te_toca.png"
     inkscape:export-xdpi="90"
     inkscape:export-ydpi="90" />
  <g
     id="g8"
     transform="matrix(2.936631,0,0,2.936631,-68.167092,-73.393375)"
     style="fill:#ed307c"
     inkscape:export-filename="/home/alfred/Desktop/piano/data/te_toca.png"
     inkscape:export-xdpi="90"
     inkscape:export-ydpi="90">
    <path
       d="m 47.37,63.741 -0.32,-2.249 c -0.729,-5.084 1.312,-9.437 4.558,-9.728 3.241,-0.283 6.466,3.609 7.193,8.701 l 0.435,3.051 c -0.106,0.067 -0.23,0.149 -0.351,0.225 H 47.37"
       id="path10"
       inkscape:connector-curvature="0" />
    <path
       d="m 19.963,63.718 0.139,-5.05 c 0,-7.706 7,-13.962 15.64,-13.962 8.643,0 15.65,6.256 15.65,13.962 v 5.135 l -31.429,-0.09"
       id="path12"
       inkscape:connector-curvature="0" />
  </g>
  <path
     d="m 61.778828,72.742192 c -10.289955,0 -43.403405,0 -49.952092,0 -0.411129,0 2.252396,-21.278827 2.252396,-24.189029 0,-0.193818 45.867239,-0.367079 45.867239,-0.367079 0,0 2.23184,24.556108 1.826584,24.556108"
     id="path14"
     inkscape:connector-curvature="0"
     style="fill:#cf2874"
     inkscape:export-filename="/home/alfred/Desktop/piano/data/te_toca.png"
     inkscape:export-xdpi="90"
     inkscape:export-ydpi="90" />
  <path
     d="M 85.917935,20.417302 C 83.724272,40.483301 59.676201,54.303086 32.139412,51.301849 4.6466732,48.300612 -15.883315,29.603084 -13.692588,9.5458941 -11.498925,-10.505423 16.208189,-57.538504 43.697992,-54.543141 71.228908,-51.53603 88.099852,0.36598588 85.917935,20.417302"
     id="path16"
     inkscape:connector-curvature="0"
     style="fill:#fbb042"
     inkscape:export-filename="/home/alfred/Desktop/piano/data/te_toca.png"
     inkscape:export-xdpi="90"
     inkscape:export-ydpi="90" />
  <g
     id="g18"
     transform="matrix(2.936631,0,0,2.936631,-68.167092,-73.393375)"
     style="fill:#25333a"
     inkscape:export-filename="/home/alfred/Desktop/piano/data/te_toca.png"
     inkscape:export-xdpi="90"
     inkscape:export-ydpi="90">
    <path
       d="m 39.41,24.801 c -0.185,1.67 0.789,3.15 2.169,3.302 1.38,0.149 2.638,-1.087 2.821,-2.758 0.183,-1.681 -0.781,-3.151 -2.161,-3.301 -1.378,-0.149 -2.645,1.074 -2.829,2.757"
       id="path20"
       inkscape:connector-curvature="0" />
    <path
       d="m 27.546,23.503 c -0.183,1.673 0.79,3.153 2.165,3.305 1.384,0.149 2.656,-1.087 2.838,-2.758 0.184,-1.679 -0.792,-3.151 -2.178,-3.301 -1.372,-0.152 -2.641,1.075 -2.825,2.754"
       id="path22"
       inkscape:connector-curvature="0" />
  </g>
  <path
     d="M -0.47774784,-17.738344 C 0.80849634,-30.248392 2.1152975,-42.690898 3.360429,-55.43294 28.383461,-74.987965 60.392738,-67.948861 81.157656,-42.996307 80.02999,-30.4334 78.952246,-18.143599 77.865693,-5.8038767 52.340497,-11.803414 25.946057,-15.811915 -0.47774784,-17.738344"
     id="path24"
     inkscape:connector-curvature="0"
     style="fill:#633d19"
     inkscape:export-filename="/home/alfred/Desktop/piano/data/te_toca.png"
     inkscape:export-xdpi="90"
     inkscape:export-ydpi="90" />
  <path
     d="m -38.771416,100.36708 c 0.795827,5.6119 3.873416,10.25472 8.072798,13.40572 l 24.8380248,-0.0675 C -0.17821218,109.31793 3.099068,102.14374 2.0095784,94.537869 L -16.955184,-37.933555 c -1.606338,-11.261979 -12.048997,-19.082227 -23.308041,-17.47589 -11.259043,1.61221 -19.088101,12.043123 -17.470017,23.30804 l 18.961826,132.471425"
     id="path26"
     inkscape:connector-curvature="0"
     style="fill:#cf2874"
     inkscape:export-filename="/home/alfred/Desktop/piano/data/te_toca.png"
     inkscape:export-xdpi="90"
     inkscape:export-ydpi="90" />
  <path
     d="m -54.582237,-48.619955 c -1.286245,-2.910202 -2.296446,-5.097992 -2.601855,-5.976045 -2.75456,-8.087482 19.819322,-19.593201 23.992274,-18.917777 0.328903,0.04698 6.898147,12.65688 12.348534,24.999539 0.143895,-0.508036 0.281917,-0.972023 0.364142,-1.195208 1.876507,-4.96878 17.2732639,-1.582844 19.0176224,0.399382 0.2319938,0.276044 -5.4327669,26.159509 -9.0536334,30.217932 -1.800155,2.032149 -11.385318,7.782073 -13.902011,8.284237 -1.726738,0.334776 -15.34096,1.3978353 -29.571874,-4.33153 -5.051005,-2.046833 -14.524577,-27.789339 -14.345443,-28.100623 0.954406,-1.597527 8.442815,-5.039259 13.740497,-5.379907"
     id="path28"
     inkscape:connector-curvature="0"
     style="fill:#fbb042"
     inkscape:export-filename="/home/alfred/Desktop/piano/data/te_toca.png"
     inkscape:export-xdpi="90"
     inkscape:export-ydpi="90" />
  <path
     d="m 66.976666,16.946204 c 0,16.636015 -13.490883,30.126897 -30.129835,30.126897 -16.627204,0 -30.1239597,-13.493819 -30.1239597,-30.126897"
     id="path30"
     inkscape:connector-curvature="0"
     style="fill:#633f1a"
     inkscape:export-filename="/home/alfred/Desktop/piano/data/te_toca.png"
     inkscape:export-xdpi="90"
     inkscape:export-ydpi="90" />
  <path
     d="m 61.837561,19.973871 c 0,6.642659 -11.408811,12.03725 -25.472337,12.03725 -14.060589,0 -25.466464,-5.394591 -25.466464,-12.03725"
     id="path32"
     inkscape:connector-curvature="0"
     style="fill:#ffffff"
     inkscape:export-filename="/home/alfred/Desktop/piano/data/te_toca.png"
     inkscape:export-xdpi="90"
     inkscape:export-ydpi="90" />
  <path
     style="fill:#000000;fill-opacity:0;stroke:#405be5;stroke-width:8;stroke-linejoin:round;stroke-miterlimit:4;stroke-opacity:1;stroke-dashoffset:0"
     d="m 186.00504,-45.685444 279.58282,0 0,138.832626 -279.58282,0 0,-59.828425 -67.11522,-19.175777 67.11522,-21.4768709 z"
     id="rect3017"
     inkscape:connector-curvature="0"
     sodipodi:nodetypes="cccccccc"
     inkscape:export-filename="/home/alfred/Desktop/piano/data/te_toca.png"
     inkscape:export-xdpi="90"
     inkscape:export-ydpi="90" />
  <flowRoot
     xml:space="preserve"
     id="flowRoot3795"
     style="font-size:40px;font-style:normal;font-weight:normal;line-height:125%;letter-spacing:0px;word-spacing:0px;fill:#ffffff;fill-opacity:1;stroke:none;font-family:Sans"
     transform="translate(1.909729,31.939028)"
     inkscape:export-filename="/home/alfred/Desktop/piano/data/te_toca.png"
     inkscape:export-xdpi="90"
     inkscape:export-ydpi="90"><flowRegion
       id="flowRegion3797"><rect
         id="rect3799"
         width="263.47519"
         height="118.12279"
         x="195.20941"
         y="-33.796463"
         style="fill:#ffffff;fill-opacity:1" /></flowRegion><flowPara
       id="flowPara3801"
       style="text-align:center;text-anchor:middle;fill:#ffffff;fill-opacity:1">Te toca!!!</flowPara></flowRoot></svg>
